<svg xmlns="http://www.w3.org/2000/svg" width="1024" height="1024" viewBox="0 0 1024 1024">
  <defs>
    <linearGradient id="bg" x1="0" x2="0" y1="0" y2="1">
      <stop offset="0%" stop-color="#2E7CF6"/>
      <stop offset="100%" stop-color="#0B56CF"/>
    </linearGradient>
    <!-- Inner glow/light to add depth to the solid background -->
    <radialGradient id="ig" cx="512" cy="512" r="512" gradientUnits="userSpaceOnUse">
      <stop offset="0%" stop-color="#FFFFFF" stop-opacity="0.06"/>
      <stop offset="75%" stop-color="#FFFFFF" stop-opacity="0.03"/>
      <stop offset="100%" stop-color="#FFFFFF" stop-opacity="0"/>
    </radialGradient>
  </defs>
  <!-- Rounded square background per Play icon spec -->
  <rect width="1024" height="1024" rx="220" fill="#0A2A45"/>
  <rect width="1024" height="1024" rx="220" fill="url(#ig)"/>


  <!-- Freezr freezer icon (from launcher), scaled from 24x24 source.
       Scale=28 -> glyph size 24*28=672px, centered with 176px padding. -->
  <!-- Freezer glyph enlarged 1.5x (S=26.25), centered at (197,197) -->
  <g transform="translate(197,197) scale(26.25)">
    <!-- Body back to white -->
    <path d="M6,2h12a2,2 0 0 1 2,2v16a2,2 0 0 1 -2,2H6a2,2 0 0 1 -2,-2V4a2,2 0 0 1 2,-2z"
          fill="#FFFFFF" stroke="none"/>
    <!-- Divider line in dark for contrast on white body -->
    <path d="M5,8.5h14" fill="none" stroke="#0A2A45" stroke-width="1.6"/>
    <!-- Handles in dark -->
    <path d="M9,6.5v2" fill="none" stroke="#0A2A45" stroke-linecap="round" stroke-width="2.4"/>
    <path d="M9,12.5v4" fill="none" stroke="#0A2A45" stroke-linecap="round" stroke-width="2.6"/>
  </g>
</svg>
